<svg width="25" height="25" viewBox="0 0 25 25" fill="none" xmlns="http://www.w3.org/2000/svg">
<g clip-path="url(#clip0_1139_99)">
<path d="M5.31543 5.68164C5.31543 4.75338 5.68418 3.86314 6.34056 3.20677C6.99693 2.55039 7.88717 2.18164 8.81543 2.18164H12.3154V9.18164H8.81543C7.88717 9.18164 6.99693 8.81289 6.34056 8.15651C5.68418 7.50014 5.31543 6.6099 5.31543 5.68164Z" stroke="white" stroke-width="2" stroke-linecap="round" stroke-linejoin="round"/>
<path d="M12.3154 2.18164H15.8154C16.2751 2.18164 16.7302 2.27217 17.1548 2.44806C17.5795 2.62395 17.9653 2.88176 18.2903 3.20677C18.6153 3.53177 18.8731 3.91761 19.049 4.34225C19.2249 4.76689 19.3154 5.22201 19.3154 5.68164C19.3154 6.14127 19.2249 6.59639 19.049 7.02103C18.8731 7.44567 18.6153 7.83151 18.2903 8.15651C17.9653 8.48152 17.5795 8.73933 17.1548 8.91522C16.7302 9.09111 16.2751 9.18164 15.8154 9.18164H12.3154V2.18164Z" stroke="white" stroke-width="2" stroke-linecap="round" stroke-linejoin="round"/>
<path d="M12.3154 12.6816C12.3154 12.222 12.406 11.7669 12.5819 11.3422C12.7577 10.9176 13.0156 10.5318 13.3406 10.2068C13.6656 9.88176 14.0514 9.62395 14.476 9.44806C14.9007 9.27217 15.3558 9.18164 15.8154 9.18164C16.2751 9.18164 16.7302 9.27217 17.1548 9.44806C17.5795 9.62395 17.9653 9.88176 18.2903 10.2068C18.6153 10.5318 18.8731 10.9176 19.049 11.3422C19.2249 11.7669 19.3154 12.222 19.3154 12.6816C19.3154 13.1413 19.2249 13.5964 19.049 14.021C18.8731 14.4457 18.6153 14.8315 18.2903 15.1565C17.9653 15.4815 17.5795 15.7393 17.1548 15.9152C16.7302 16.0911 16.2751 16.1816 15.8154 16.1816C15.3558 16.1816 14.9007 16.0911 14.476 15.9152C14.0514 15.7393 13.6656 15.4815 13.3406 15.1565C13.0156 14.8315 12.7577 14.4457 12.5819 14.021C12.406 13.5964 12.3154 13.1413 12.3154 12.6816Z" stroke="white" stroke-width="2" stroke-linecap="round" stroke-linejoin="round"/>
<path d="M5.31543 19.6816C5.31543 18.7534 5.68418 17.8631 6.34056 17.2068C6.99693 16.5504 7.88717 16.1816 8.81543 16.1816H12.3154V19.6816C12.3154 20.6099 11.9467 21.5001 11.2903 22.1565C10.6339 22.8129 9.74369 23.1816 8.81543 23.1816C7.88717 23.1816 6.99693 22.8129 6.34056 22.1565C5.68418 21.5001 5.31543 20.6099 5.31543 19.6816Z" stroke="white" stroke-width="2" stroke-linecap="round" stroke-linejoin="round"/>
<path d="M5.31543 12.6816C5.31543 11.7534 5.68418 10.8631 6.34056 10.2068C6.99693 9.55039 7.88717 9.18164 8.81543 9.18164H12.3154V16.1816H8.81543C7.88717 16.1816 6.99693 15.8129 6.34056 15.1565C5.68418 14.5001 5.31543 13.6099 5.31543 12.6816Z" stroke="white" stroke-width="2" stroke-linecap="round" stroke-linejoin="round"/>
</g>
<defs>
<clipPath id="clip0_1139_99">
<rect width="24" height="24" fill="white" transform="translate(0.31543 0.181641)"/>
</clipPath>
</defs>
</svg>
