<svg xmlns="http://www.w3.org/2000/svg" xmlns:xlink="http://www.w3.org/1999/xlink" viewBox="0,0,256,256" width="50px" height="50px" fill-rule="nonzero"><g fill="#ffffff" fill-rule="nonzero" stroke="none" stroke-width="1" stroke-linecap="butt" stroke-linejoin="miter" stroke-miterlimit="10" stroke-dasharray="" stroke-dashoffset="0" font-family="none" font-weight="none" font-size="none" text-anchor="none" style="mix-blend-mode: normal"><g transform="scale(5.12,5.12)"><path d="M29.17188,6.00781c-5.39539,0.002 -10.79112,-0.01015 -16.18945,0.00586c-1.84803,0.00525 -3.2915,0.24879 -4.39648,1.12695c-1.10499,0.87816 -1.66759,2.22987 -2.08594,4.03516c-2.09029,9.01424 -4.16438,18.0339 -6.22656,27.05469c-0.40604,1.77251 -0.44977,3.25801 0.4375,4.35352c0.88727,1.09551 2.35462,1.38425 4.23047,1.39063c10.79441,0.03601 21.58902,0.03201 32.38281,0c1.66852,-0.0049 3.07327,-0.33554 4.15234,-1.17773c1.07907,-0.84219 1.72553,-2.12203 2.08789,-3.70898c2.09844,-9.20392 4.1696,-18.41549 6.19531,-27.63672c0.37014,-1.68627 0.39834,-3.09552 -0.45117,-4.13477c-0.84951,-1.03925 -2.22908,-1.29774 -3.94336,-1.30469c-5.40169,-0.02202 -10.79909,-0.00591 -16.19336,-0.00391zM29.17383,8.00781c5.39773,-0.002 10.79129,-0.01808 16.18359,0.00391c1.49372,0.00605 2.1706,0.28681 2.40234,0.57031c0.23174,0.2835 0.36774,0.97967 0.04688,2.44141c-2.02416,9.21415 -4.09594,18.42163 -6.19336,27.62109c-0.30163,1.31973 -0.7486,2.09142 -1.36719,2.57422c-0.61893,0.48306 -1.51626,0.75173 -2.92773,0.75586c-10.79021,0.032 -21.5815,0.03599 -32.37109,0c-1.65219,-0.00562 -2.41316,-0.31694 -2.68164,-0.64844c-0.26848,-0.33149 -0.39597,-1.1009 -0.04102,-2.65039c2.06182,-9.01921 4.13294,-18.03707 6.22266,-27.04883c0.37766,-1.62971 0.8108,-2.46533 1.38281,-2.91992c0.57201,-0.45459 1.48823,-0.68861 3.1582,-0.69336c5.39166,-0.01599 10.78694,-0.00386 16.18555,-0.00586zM19.26953,11.00586c-0.6345,-0.04737 -1.284,0.21688 -1.9375,0.79688c-1.323,1.174 -0.97114,2.32858 0.13086,3.51758c2.407,2.599 4.6325,5.14114 7.0625,7.86914c0.417,0.465 0.92325,1.04542 1.53125,1.73242c-0.462,0.345 -1.19224,0.90745 -1.74023,1.31445c-3.931,2.927 -7.87898,5.83356 -11.83398,8.72656c-1.106,0.809 -2.09139,1.66828 -1.02539,3.11328c0.967,1.31 2.10869,1.08817 3.30469,0.20117c5.323,-3.945 10.65077,-7.8843 16.00977,-11.7793c1.396,-1.015 1.69183,-1.94545 0.42383,-3.31445c-3.395,-3.666 -6.73227,-7.38652 -10.07227,-11.10352c-0.5995,-0.6675 -1.21902,-1.02684 -1.85352,-1.07422zM22.75,34c-1.125,0 -1.75,1 -1.75,2c0,1 0.625,2 1.75,2h9.5c1.125,0 1.75,-1 1.75,-2c0,-1 -0.625,-2 -1.75,-2z"></path></g></g></svg>