<svg xmlns="http://www.w3.org/2000/svg" xmlns:xlink="http://www.w3.org/1999/xlink" viewBox="0,0,256,256" width="64px" height="64px" fill-rule="nonzero"><g fill="#ffffff" fill-rule="nonzero" stroke="none" stroke-width="1" stroke-linecap="butt" stroke-linejoin="miter" stroke-miterlimit="10" stroke-dasharray="" stroke-dashoffset="0" font-family="none" font-weight="none" font-size="none" text-anchor="none" style="mix-blend-mode: normal"><g transform="scale(4,4)"><path d="M38.57227,3.00195c-3.35424,-0.09187 -6.72903,0.7531 -9.68164,2.62695c-0.0013,0.00065 -0.00261,0.0013 -0.00391,0.00195l-13.03906,8.3457c-0.002,0.0013 -0.00386,0.00271 -0.00586,0.00391l-0.00195,0.00195c-3.79358,2.38095 -6.4242,6.2746 -7.18359,10.68359c-0.61733,3.47276 -0.06888,7.01822 1.47852,10.17578c-1.05889,1.70599 -1.81458,3.56339 -2.14258,5.52734c-0.00034,0.002 -0.00161,0.00376 -0.00195,0.00586c-0.80263,4.48409 0.25392,9.11073 2.87109,12.78906c0.0014,0.0019 0.00251,0.00386 0.00391,0.00586l0.00195,0.00195c5.5211,7.87116 16.34946,10.19253 24.21875,5.19727l13.04297,-8.29883c3.79919,-2.3805 6.43148,-6.27738 7.19141,-10.68945c0.61732,-3.47269 0.06881,-7.01826 -1.47852,-10.17578c1.05813,-1.70476 1.81231,-3.56298 2.14063,-5.52539c0.8538,-4.53397 -0.2064,-9.1737 -2.87695,-12.85547c-3.42231,-4.91839 -8.94849,-7.6693 -14.5332,-7.82227zM21.74609,3.0293c-0.12914,0.02331 -0.25775,0.07244 -0.375,0.14844c-0.47,0.304 -0.60664,0.92663 -0.30664,1.39063l1.08789,1.67773c0.3,0.464 0.92358,0.59502 1.39258,0.29102c0.47,-0.304 0.60664,-0.92663 0.30664,-1.39062l-1.08594,-1.67773c-0.225,-0.348 -0.63211,-0.50939 -1.01953,-0.43945zM38.5293,5.00977c4.96532,0.14192 9.89986,2.58533 12.94336,6.96875c0.00449,0.00591 0.00905,0.01177 0.01367,0.01758c2.35326,3.24252 3.28527,7.32518 2.5293,11.32422c-0.00138,0.00715 -0.00268,0.01431 -0.00391,0.02148c-0.30832,1.85083 -1.01117,3.61488 -2.07422,5.20898c-0.20538,0.30766 -0.22416,0.70357 -0.04883,1.0293c1.55022,2.8783 2.04013,6.20333 1.46094,9.45508c-0.00001,0.00195 -0.00001,0.00391 0,0.00586c-0.66207,3.84393 -2.96439,7.25448 -6.2832,9.33398c-0.00196,0.0013 -0.00391,0.0026 -0.00586,0.00391l-13.04687,8.30273c-6.93,4.39902 -16.59502,2.35625 -21.51367,-4.66406c-0.0013,-0.00196 -0.0026,-0.00391 -0.00391,-0.00586c-2.3104,-3.24313 -3.24599,-7.33992 -2.53516,-11.29492c0.00067,-0.0039 0.00133,-0.00781 0.00195,-0.01172c0.30832,-1.85083 1.01313,-3.61488 2.07617,-5.20898c0.20538,-0.30766 0.22416,-0.70357 0.04883,-1.0293c-1.55021,-2.8783 -2.04209,-6.20528 -1.46289,-9.45703c0.00066,-0.00195 0.00131,-0.0039 0.00195,-0.00586c0.66205,-3.84378 2.96333,-7.2525 6.28125,-9.33203c0.00327,-0.00193 0.00652,-0.00389 0.00977,-0.00586l13.04297,-8.34961l0.00391,-0.00195c2.59727,-1.64723 5.58669,-2.3898 8.56445,-2.30469zM17.49609,5.7793c-0.12914,0.02331 -0.25775,0.07244 -0.375,0.14844c-0.47,0.304 -0.60664,0.92662 -0.30664,1.39063l1.08789,1.67773c0.3,0.464 0.92358,0.59502 1.39258,0.29102c0.47,-0.304 0.60664,-0.92662 0.30664,-1.39062l-1.08594,-1.67773c-0.225,-0.348 -0.63211,-0.50939 -1.01953,-0.43945zM13.24609,8.5293c-0.12914,0.02331 -0.25775,0.07244 -0.375,0.14844c-0.47,0.304 -0.60664,0.92662 -0.30664,1.39062l1.08789,1.67774c0.3,0.464 0.92358,0.59502 1.39258,0.29101c0.47,-0.304 0.60664,-0.92662 0.30664,-1.39062l-1.08594,-1.67773c-0.225,-0.348 -0.63211,-0.50939 -1.01953,-0.43945zM38.44141,8.94531c-0.87386,0.0187 -1.75509,0.13934 -2.62891,0.36523c-0.01243,0.00302 -0.0248,0.00627 -0.03711,0.00977c-1.02162,0.30638 -2.01884,0.72248 -2.92969,1.31055l-0.00195,0.00195c-0.0017,0.0011 -0.00406,0.00078 -0.00586,0.00195l-13.14258,8.36328c-2.39682,1.49175 -4.0872,3.97193 -4.57031,6.75c-0.52702,2.85218 0.16,5.75286 1.78906,8.06836l0.00195,0.00195c0.00085,0.0012 0.00105,0.00271 0.00195,0.00391c2.72312,3.923 7.60288,5.75683 12.25977,4.55469h0.00391c1.05185,-0.26353 2.05909,-0.68552 2.96875,-1.27344l5.00195,-3.19141c0.09397,-0.05662 0.30769,-0.13777 0.5625,-0.22461c0.89919,-0.22664 1.78011,0.0881 2.30859,0.8457c0.27715,0.39997 0.40827,0.9663 0.31836,1.44727c-0.0943,0.5045 -0.33679,0.86237 -0.80273,1.16211l-13.08594,8.35742c-0.09397,0.05662 -0.30769,0.13777 -0.5625,0.22461c-0.87395,0.21966 -1.76414,-0.12622 -2.30078,-0.88867c-0.25069,-0.3812 -0.38944,-0.89801 -0.35937,-1.32422v-0.00195l0.04492,-0.45117c0.04733,-0.47597 -0.249,-0.91882 -0.70703,-1.05664l-0.47852,-0.14453c-1.76014,-0.54214 -3.37714,-1.35222 -4.86719,-2.43555c-0.0026,-0.00131 -0.0052,-0.00262 -0.00781,-0.00391l-0.66992,-0.47852c-0.26095,-0.1861 -0.59528,-0.23585 -0.89911,-0.1338c-0.30383,0.10205 -0.54034,0.34354 -0.63604,0.64942l-0.24024,0.76563c-0.00827,0.02638 -0.01543,0.0531 -0.02148,0.08008c-0.09282,0.41674 -0.18598,0.79888 -0.28516,1.24414c-0.00438,0.01747 -0.00829,0.03505 -0.01172,0.05273c-0.47229,2.83154 0.16019,5.73656 1.84961,8.06445c2.72465,3.92012 7.604,5.7563 12.25977,4.55273c0.01244,-0.00367 0.02482,-0.00757 0.03711,-0.01172c1.0244,-0.30721 2.02269,-0.72385 2.93555,-1.31445l-0.00586,0.00586l13.15039,-8.37109c2.39862,-1.4929 4.09058,-3.97529 4.57227,-6.75586c0.00066,-0.00195 0.00131,-0.0039 0.00195,-0.00586c0.47107,-2.83104 -0.16007,-5.73639 -1.84961,-8.06445c-2.72465,-3.92012 -7.604,-5.7563 -12.25977,-4.55273c-0.01243,0.00302 -0.0248,0.00627 -0.03711,0.00977c-1.02244,0.30663 -2.01825,0.72368 -2.92969,1.3125l-5.00781,3.19336c-0.09507,0.05645 -0.30628,0.13668 -0.55859,0.22266c-0.89909,0.2266 -1.78034,-0.08844 -2.30859,-0.8457c-0.27715,-0.39997 -0.40827,-0.96825 -0.31836,-1.44922c0.09431,-0.5045 0.33483,-0.86042 0.80078,-1.16016l13.08594,-8.35742l0.00586,-0.00195c0.09507,-0.05645 0.30628,-0.13668 0.55859,-0.22266c0.89569,-0.22574 1.77187,0.08876 2.30078,0.83984c0.25068,0.3812 0.38944,0.89801 0.35938,1.32422v0.00195l-0.04492,0.45117c-0.04831,0.47667 0.24821,0.92064 0.70703,1.05859l0.47266,0.14063h0.00195l0.00391,0.00195c1.76013,0.54214 3.37714,1.35222 4.86719,2.43555c0.0026,0.00131 0.0052,0.00262 0.00781,0.00391l0.66992,0.48047c0.26095,0.1861 0.59528,0.23585 0.89911,0.1338c0.30383,-0.10205 0.54034,-0.34354 0.63604,-0.64942l0.23242,-0.74805l0.00586,-0.01758c0.15489,-0.46646 0.25956,-0.88683 0.35742,-1.32617c0.00373,-0.01749 0.00698,-0.03507 0.00977,-0.05273c0.47225,-2.83129 -0.15855,-5.73608 -1.84961,-8.0625c-2.04296,-2.93919 -5.29454,-4.7078 -8.75781,-4.90039c-0.28899,-0.01607 -0.57981,-0.02186 -0.87109,-0.01562zM38.49023,10.94531c0.23892,-0.0053 0.47795,-0.00126 0.71484,0.01172c2.86207,0.15685 5.54273,1.61531 7.23242,4.05274c0.00448,0.00656 0.00904,0.01308 0.01367,0.01953c1.36509,1.87388 1.88029,4.22278 1.49609,6.55078c-0.04872,0.21723 -0.10912,0.40848 -0.16211,0.60352c-1.44703,-0.98569 -3.0007,-1.76591 -4.66797,-2.31055l-0.0293,0.2832c0.0083,-0.11611 -0.08616,-0.21423 -0.08789,-0.33008c-0.06338,-0.02023 -0.11992,-0.05463 -0.18359,-0.07422l0.17773,0.05273c-0.01609,-0.78463 -0.15545,-1.57479 -0.5957,-2.23633c-0.00384,-0.0059 -0.00775,-0.01176 -0.01172,-0.01758c-1.00075,-1.43842 -2.79238,-2.07579 -4.4707,-1.64062c-0.02235,0.00574 -0.0445,0.01226 -0.06641,0.01953c-0.28502,0.09534 -0.63613,0.20144 -1.01172,0.42773c-0.00722,0.00447 -0.01438,0.00902 -0.02148,0.01367l-13.11133,8.37305c-0.0013,0.00065 -0.00261,0.0013 -0.00391,0.00195c-0.87405,0.56226 -1.49385,1.44911 -1.68555,2.47461c-0.19609,1.04903 0.05577,2.11105 0.64063,2.95508c0,0.00065 0,0.0013 0,0.00195c1.00075,1.43842 2.79238,2.07579 4.4707,1.64063c0.02235,-0.00574 0.0445,-0.01226 0.06641,-0.01953c0.28502,-0.09534 0.63613,-0.20144 1.01172,-0.42773c0.00722,-0.00447 0.01438,-0.00902 0.02148,-0.01367l5.02344,-3.20508c0.00196,-0.0013 0.00391,-0.0026 0.00586,-0.00391c0.70632,-0.45698 1.5206,-0.80255 2.40039,-1.06836c3.85343,-0.99011 7.86108,0.51959 10.11133,3.76563c0.00449,0.00591 0.00905,0.01177 0.01367,0.01758c1.36616,1.87836 1.88386,4.2317 1.49805,6.5625c-0.38032,2.19543 -1.7508,4.2113 -3.6582,5.39844c-0.00261,0.00194 -0.00522,0.00389 -0.00781,0.00586l-13.16016,8.37695c-0.00196,0.0013 -0.00391,0.0026 -0.00586,0.00391c-0.70632,0.45698 -1.5206,0.80255 -2.40039,1.06836c-3.85343,0.99011 -7.86108,-0.51959 -10.11133,-3.76562c-0.00448,-0.00656 -0.00904,-0.01308 -0.01367,-0.01953c-1.36589,-1.87799 -1.88406,-4.22889 -1.49805,-6.55859c0.04371,-0.19483 0.08986,-0.39283 0.13477,-0.58398c1.44151,0.97925 2.98873,1.75666 4.64844,2.29883l0.0293,-0.2832c-0.0083,0.11619 0.08615,0.21415 0.08789,0.33008c0.06336,0.02023 0.11993,0.05463 0.18359,0.07422l-0.17773,-0.05273c0.01614,0.78454 0.1555,1.57291 0.5957,2.23438c0.00384,0.0059 0.00775,0.01176 0.01172,0.01758c0.99297,1.42724 2.76992,2.13045 4.4707,1.68945c0.02235,-0.00574 0.0445,-0.01226 0.06641,-0.01953c0.28502,-0.09534 0.63613,-0.20144 1.01172,-0.42773c0.00722,-0.00447 0.01438,-0.00902 0.02148,-0.01367l13.11133,-8.37305c0.00065,-0.00065 0.0013,-0.0013 0.00195,-0.00195c0.87405,-0.56226 1.4958,-1.44911 1.6875,-2.47461c0.19609,-1.04903 -0.05577,-2.11104 -0.64062,-2.95508c-0.00065,-0.00065 -0.0013,-0.0013 -0.00195,-0.00195c-1.00052,-1.43809 -2.79055,-2.07576 -4.46875,-1.64062c-0.02235,0.00574 -0.0445,0.01226 -0.06641,0.01953c-0.28502,0.09534 -0.63613,0.20144 -1.01172,0.42773c-0.00722,0.00447 -0.01438,0.00902 -0.02148,0.01367l-5.02344,3.20508c-0.00196,0.0013 -0.00391,0.0026 -0.00586,0.00391c-0.71314,0.46139 -1.52098,0.80332 -2.37891,1.01758c-0.00261,0.00064 -0.00521,0.00129 -0.00781,0.00195c-3.85764,0.99724 -7.87208,-0.51573 -10.125,-3.76562c-0.0013,-0.00196 -0.0026,-0.00391 -0.00391,-0.00586c-1.33291,-1.89196 -1.88943,-4.25095 -1.46094,-6.5625c0.00067,-0.0039 0.00133,-0.00781 0.00195,-0.01172c0.38032,-2.19543 1.7508,-4.21129 3.6582,-5.39844c0.00261,-0.00194 0.00522,-0.00389 0.00781,-0.00586l13.1582,-8.37305c0.00261,-0.00129 0.00521,-0.00259 0.00781,-0.00391c0.70797,-0.45805 1.52409,-0.80427 2.40625,-1.07031c0.71852,-0.18414 1.44144,-0.28293 2.1582,-0.29883zM8.99609,11.2793c-0.12914,0.02331 -0.25775,0.07244 -0.375,0.14844c-0.47,0.304 -0.60664,0.92663 -0.30664,1.39063l1.08789,1.67774c0.3,0.464 0.92358,0.59502 1.39258,0.29101c0.47,-0.304 0.60664,-0.92662 0.30664,-1.39062l-1.08594,-1.67773c-0.225,-0.348 -0.63211,-0.50939 -1.01953,-0.43945zM53.58984,49.07813c-0.12914,0.02331 -0.2558,0.07244 -0.37305,0.14844c-0.47,0.304 -0.60859,0.92663 -0.30859,1.39063l1.08789,1.67969c0.3,0.464 0.92358,0.59306 1.39258,0.28906c0.469,-0.304 0.60564,-0.92663 0.30664,-1.39063l-1.08594,-1.67773c-0.225,-0.348 -0.63211,-0.50939 -1.01953,-0.43945zM49.33984,51.82813c-0.12914,0.02331 -0.2558,0.07244 -0.37305,0.14844c-0.47,0.304 -0.60859,0.92663 -0.30859,1.39063l1.08789,1.67969c0.3,0.464 0.92358,0.59306 1.39258,0.28906c0.469,-0.304 0.60564,-0.92663 0.30664,-1.39063l-1.08594,-1.67773c-0.225,-0.348 -0.63211,-0.50939 -1.01953,-0.43945zM45.08984,54.57813c-0.12914,0.02331 -0.2558,0.07244 -0.37305,0.14844c-0.47,0.304 -0.60859,0.92663 -0.30859,1.39063l1.08789,1.67969c0.3,0.464 0.92358,0.59306 1.39258,0.28906c0.469,-0.304 0.60564,-0.92663 0.30664,-1.39063l-1.08594,-1.67773c-0.225,-0.348 -0.63211,-0.50939 -1.01953,-0.43945zM40.83984,57.32813c-0.12914,0.02331 -0.2558,0.07244 -0.37305,0.14844c-0.47,0.304 -0.60859,0.92663 -0.30859,1.39063l1.08789,1.67969c0.3,0.464 0.92358,0.59306 1.39258,0.28906c0.469,-0.304 0.60564,-0.92663 0.30664,-1.39063l-1.08594,-1.67773c-0.225,-0.348 -0.63211,-0.50939 -1.01953,-0.43945z"></path></g></g></svg>