<svg width="80" height="72" viewBox="0 0 80 72" fill="none" xmlns="http://www.w3.org/2000/svg">
<path d="M77.6247 5.08919L63.2245 0.162809C62.2696 -0.164606 61.2024 0.0081972 60.3991 0.623615L27.9365 25.5132L11.5142 15.5968C10.6715 15.0844 9.63464 15.0147 8.73122 15.4118L2.66799 18.0645C1.56448 18.5465 0.852051 19.6379 0.852051 20.8415V51.1576C0.852051 52.3612 1.56448 53.4526 2.66799 53.9346L8.73122 56.5873C9.63161 56.9844 10.6684 56.9116 11.5142 56.4023L27.9335 46.4859L60.396 71.3755C60.9326 71.7878 61.5844 72 62.2393 72C62.5697 72 62.9001 71.9454 63.2215 71.8363L77.6217 66.9099C78.8495 66.4915 79.6741 65.3395 79.6741 64.042V7.9571C79.6741 6.65956 78.8495 5.50755 77.6247 5.08919ZM12.9785 41.3534V30.6457L21.8399 35.9995L12.9785 41.3534ZM61.4844 50.2997L40.3783 35.9995L61.4844 21.6994V50.2997Z" fill="white"/>
</svg>
